<svg width="22" height="21" viewBox="0 0 22 21" fill="none" xmlns="http://www.w3.org/2000/svg">
<path d="M21.7969 19.9288L16.5753 14.8255C17.976 13.2517 18.824 11.1983 18.824 8.954C18.824 4.0137 14.7125 0 9.6625 0C4.6077 0 0.500977 4.01836 0.500977 8.954C0.500977 13.8896 4.61246 17.908 9.6625 17.908C11.9588 17.908 14.0598 17.0792 15.6701 15.7102L20.8917 20.8135C21.0155 20.9346 21.1823 20.9998 21.3443 20.9998C21.5062 20.9998 21.673 20.9392 21.7969 20.8135C22.0446 20.5714 22.0446 20.1709 21.7969 19.9288ZM1.78254 8.954C1.78254 4.70748 5.31756 1.25719 9.65773 1.25719C14.0027 1.25719 17.5329 4.71214 17.5329 8.954C17.5329 13.1959 14.0027 16.6555 9.65773 16.6555C5.31756 16.6555 1.78254 13.2005 1.78254 8.954Z" fill="#828282"/>
</svg>
