<svg width="20" height="12" viewBox="0 0 20 12" fill="none" xmlns="http://www.w3.org/2000/svg">
<path d="M19.2397 5.54506C17.2835 2.12464 13.6473 0 9.75 0C5.85273 0 2.2165 2.12464 0.260321 5.54506L0 6L0.260321 6.45494C2.21614 9.87536 5.85237 12 9.75 12C13.6476 12 17.2835 9.87536 19.2397 6.45494L19.5 6L19.2397 5.54506ZM2.0919 6C2.87717 4.79397 3.92384 3.8085 5.1267 3.09557C4.69655 3.8681 4.44843 4.75763 4.44843 5.70567C4.44843 7.07849 4.96764 8.3274 5.8118 9.27435C4.31989 8.55269 3.02295 7.42987 2.0919 6ZM13.588 9.32413C14.4591 8.37173 14.9963 7.10247 14.9963 5.70567C14.9963 5.34266 14.9596 4.98837 14.8911 4.64571C14.736 5.10647 14.4577 5.50945 14.0932 5.81141C13.8196 6.03815 13.4979 6.20603 13.1471 6.30232C12.9338 6.36083 12.7105 6.39498 12.4792 6.39498C11.071 6.39498 9.92953 5.23982 9.92953 3.81468C9.92953 3.23147 10.1231 2.69549 10.4451 2.26344C10.5489 2.12427 10.666 1.99637 10.7949 1.88118C11.3514 1.94658 11.8968 2.06395 12.4261 2.22856C13.076 2.43096 13.6997 2.70603 14.2875 3.04578C14.5342 3.18859 14.7758 3.34048 15.0085 3.50581C15.9449 4.17042 16.7636 5.01199 17.4074 6.00036C16.4559 7.46221 15.1227 8.60501 13.588 9.32413Z" fill="#DEDEDE"/>
</svg>
